<?xml version="1.0" encoding="UTF-8" standalone="no"?>
<!-- Created with Inkscape (http://www.inkscape.org/) -->

<svg
   width="9.7461748mm"
   height="9.6738281mm"
   viewBox="0 0 9.7461748 9.6738281"
   version="1.1"
   id="svg5"
   inkscape:version="1.1.2 (b8e25be8, 2022-02-05)"
   sodipodi:docname="monogram.svg"
   xmlns:inkscape="http://www.inkscape.org/namespaces/inkscape"
   xmlns:sodipodi="http://sodipodi.sourceforge.net/DTD/sodipodi-0.dtd"
   xmlns="http://www.w3.org/2000/svg"
   xmlns:svg="http://www.w3.org/2000/svg">
  <sodipodi:namedview
     id="namedview7"
     pagecolor="#ffffff"
     bordercolor="#666666"
     borderopacity="1.0"
     inkscape:pageshadow="2"
     inkscape:pageopacity="0.0"
     inkscape:pagecheckerboard="0"
     inkscape:document-units="mm"
     showgrid="false"
     fit-margin-top="0"
     fit-margin-left="0"
     fit-margin-right="0"
     fit-margin-bottom="0"
     inkscape:zoom="6.0579784"
     inkscape:cx="57.692513"
     inkscape:cy="36.233209"
     inkscape:window-width="1312"
     inkscape:window-height="1027"
     inkscape:window-x="0"
     inkscape:window-y="25"
     inkscape:window-maximized="0"
     inkscape:current-layer="layer1" />
  <defs
     id="defs2">
    <rect
       x="128.55302"
       y="176.26341"
       width="322.0452"
       height="227.94969"
       id="rect2871" />
  </defs>
  <g
     inkscape:label="Layer 1"
     inkscape:groupmode="layer"
     id="layer1"
     transform="translate(-34.18861,-48.414099)">
    <g
       aria-label="GKH"
       transform="scale(0.26458333)"
       id="text2869"
       style="font-size:40px;line-height:1.25;white-space:pre;shape-inside:url(#rect2871)">
      <path
         d="m 130.27148,207.43555 q -0.85937,-2.38282 -1.01562,-4.92188 -0.0391,-0.625 -0.0391,-1.25 0,-0.625 0.0391,-1.25 0.15625,-2.53906 1.01562,-4.92187 0.42969,-1.25 1.05469,-2.46094 2.30469,-4.29688 6.40625,-6.95313 l 0.11719,-0.0391 q 1.17187,-0.78125 2.46094,-1.32812 l 0.27343,-0.11719 v 3.16406 8.04688 h -2.85156 v -6.17188 q -1.875,1.5625 -3.20312,3.63281 -0.74219,1.13282 -1.25,2.38282 -0.97657,2.30468 -1.17188,4.80468 -0.0391,0.625 -0.0391,1.21094 0,0.58594 0.0391,1.21094 0.19531,2.5 1.17188,4.80469 0.50781,1.25 1.25,2.38281 1.32812,2.07031 3.20312,3.63281 v -10.58594 h -3.67187 v -2.89062 h 3.67187 2.85156 v 2.89062 12.46094 3.16406 l -0.27343,-0.11718 q -0.82032,-0.35157 -1.5625,-0.78125 -0.46875,-0.23438 -0.89844,-0.54688 l -0.11719,-0.0391 q -4.10156,-2.65625 -6.40625,-6.95313 -0.625,-1.21093 -1.05469,-2.46093 z"
         style="font-family:Round_Monogram_Left;-inkscape-font-specification:'Round_Monogram_Left, Normal'"
         id="path10443" />
      <path
         d="m 150.70117,183.02148 q 1.25,0.23438 2.46094,0.58594 l 0.15625,0.0781 v 11.17187 4.0625 l -2.34375,2.34375 2.34375,2.34375 v 4.0625 11.17188 l -0.15625,0.0781 q -1.21094,0.35156 -2.46094,0.58594 l -0.23437,0.0391 V 204.7793 l -2.10938,-2.07032 h -3.55469 v 16.83594 l -0.23437,-0.0391 q -1.25,-0.23438 -2.46094,-0.58594 l -0.15625,-0.0781 v -16.13282 -2.89062 -16.13281 l 0.15625,-0.0781 q 1.21094,-0.35156 2.46094,-0.58594 l 0.23437,-0.0391 v 16.83594 h 3.55469 l 2.10938,-2.07031 v -14.76563 z"
         style="font-family:Round_Monogram_Center;-inkscape-font-specification:'Round_Monogram_Center, Normal'"
         id="path10445" />
      <path
         d="m 157.41992,216.88867 q -1.17187,0.78125 -2.46094,1.32813 l -0.27343,0.11718 v -15.625 -2.89062 -15.625 l 0.27343,0.11719 q 1.28907,0.54687 2.46094,1.32812 l 0.11719,0.0391 v 14.14063 h 5.58594 q -0.35157,-3.78906 -2.38282,-6.95313 -0.82031,-1.28906 -1.875,-2.42187 l -0.35156,-0.35156 h 3.78906 l 0.0781,0.0781 q 0.85937,1.17188 1.5625,2.46094 1.75781,3.39844 2.07031,7.1875 v 0.19531 q 0.0391,0.625 0.0391,1.25 0,0.625 -0.0391,1.25 v 0.19531 q -0.3125,3.78907 -2.07031,7.1875 -0.70313,1.28907 -1.5625,2.46094 l -0.0781,0.0781 h -3.78906 l 0.35156,-0.35157 q 1.05469,-1.13281 1.875,-2.42187 2.03125,-3.16406 2.38282,-6.95313 h -5.58594 v 14.14063 z"
         style="font-family:Round_Monogram_Right;-inkscape-font-specification:'Round_Monogram_Right, Normal'"
         id="path10447" />
    </g>
  </g>
</svg>
